<svg aria-hidden="true" style="position: absolute; width: 0; height: 0; overflow: hidden;" version="1.1"
    xmlns="http://www.w3.org/2000/svg" xmlns:xlink="http://www.w3.org/1999/xlink">
    <defs>
        <symbol id="icon-ph_instagram-logo-fill" viewBox="0 0 32 32">
            <path
                d="M21.179 4h-11.692c-1.808 0.002-3.542 0.721-4.821 2s-1.998 3.012-2 4.821v11.692c0.002 1.808 0.721 3.542 2 4.821s3.012 1.998 4.821 2h11.692c1.808-0.002 3.542-0.721 4.821-2s1.998-3.012 2-4.821v-11.692c-0.002-1.808-0.721-3.542-2-4.821s-3.012-1.998-4.821-2zM15.333 22.513c-1.156 0-2.287-0.343-3.248-0.985s-1.711-1.555-2.153-2.624c-0.442-1.068-0.558-2.244-0.333-3.378s0.782-2.176 1.6-2.993c0.818-0.818 1.859-1.374 2.993-1.6s2.309-0.11 3.378 0.333 1.981 1.192 2.624 2.153c0.642 0.961 0.985 2.092 0.985 3.248-0.002 1.55-0.618 3.036-1.714 4.132s-2.582 1.712-4.132 1.714zM22.641 10.82c-0.289 0-0.572-0.086-0.812-0.246s-0.428-0.389-0.538-0.656c-0.111-0.267-0.14-0.561-0.083-0.844s0.196-0.544 0.4-0.748c0.204-0.204 0.465-0.344 0.748-0.4s0.577-0.027 0.844 0.083c0.267 0.111 0.495 0.298 0.656 0.538s0.246 0.523 0.246 0.812c0 0.388-0.154 0.759-0.428 1.033s-0.646 0.428-1.033 0.428zM19.231 16.667c0 0.771-0.229 1.524-0.657 2.165s-1.037 1.14-1.749 1.435c-0.712 0.295-1.496 0.372-2.252 0.222s-1.45-0.522-1.995-1.067-0.916-1.239-1.067-1.995c-0.15-0.756-0.073-1.54 0.222-2.252s0.795-1.321 1.435-1.749c0.641-0.428 1.395-0.657 2.165-0.657 1.034 0 2.025 0.411 2.756 1.142s1.142 1.722 1.142 2.756z">
            </path>
        </symbol>
        <symbol id="icon-entypo-social_youtube-with-circle" viewBox="0 0 32 32">
            <path
                d="M18.226 15.768l-3.119-1.455c-0.272-0.126-0.496 0.015-0.496 0.317v2.742c0 0.301 0.224 0.443 0.496 0.317l3.118-1.455c0.274-0.128 0.274-0.336 0.001-0.464zM16 2.667c-7.364 0-13.333 5.969-13.333 13.333s5.969 13.333 13.333 13.333c7.364 0 13.333-5.969 13.333-13.333s-5.969-13.333-13.333-13.333zM16 21.417c-6.825 0-6.944-0.615-6.944-5.417s0.119-5.417 6.944-5.417c6.825 0 6.944 0.615 6.944 5.417s-0.119 5.417-6.944 5.417z">
            </path>
        </symbol>
        <symbol id="icon-ic_outline-facebook" viewBox="0 0 32 32">
            <path
                d="M29.333 16.033c0-7.378-5.973-13.367-13.333-13.367s-13.333 5.988-13.333 13.367c0 6.469 4.587 11.856 10.667 13.099v-9.089h-2.667v-4.010h2.667v-3.342c0-2.58 2.093-4.678 4.667-4.678h3.333v4.010h-2.667c-0.733 0-1.333 0.601-1.333 1.337v2.673h4v4.010h-4v9.29c6.733-0.668 12-6.363 12-13.3z">
            </path>
        </symbol>
        <symbol id="icon-ci_menu-duo-lg" viewBox="0 0 32 32">
            <path stroke-linejoin="round" stroke-linecap="round" stroke-miterlimit="4" stroke-width="2.8571"
                d="M4 20h24M4 12h24"></path>
        </symbol>
        <symbol id="icon-ion_close-sharp" viewBox="0 0 32 32">
            <path
                d="M25.143 8.983l-2.126-2.126-7.016 7.016-7.016-7.016-2.126 2.126 7.016 7.017-7.016 7.016 2.126 2.126 7.017-7.016 7.016 7.016 2.126-2.126-7.016-7.016 7.016-7.017z">
            </path>
        </symbol>
        <symbol id="icon-vite-logo" viewBox="0 0 32 32">
            <path fill="#190622" style="fill: var(--color1, #190622)"
                d="M20.061-0.061c0.368 0.005 0.735 0.006 1.103 0.007 0.448 0.001 0.896 0.003 1.343 0.006 0.127 0.001 0.253 0.001 0.38 0.002 0.198 0.001 0.396 0.003 0.593 0.006 0.072 0.001 0.144 0.002 0.215 0.002 0.81 0.002 1.405 0.3 1.988 0.851 0.197 0.202 0.336 0.422 0.482 0.662 0.239 0.36 0.593 0.552 1.005 0.657 0.289 0.055 0.58 0.078 0.872 0.101 1.169 0.092 2.44 0.231 3.456 0.868 0.041 0.022 0.082 0.043 0.124 0.066 0.23 0.145 0.356 0.255 0.423 0.523 0.026 0.244 0.022 0.488 0.020 0.733 0.001 0.094 0.002 0.189 0.003 0.283 0.003 0.256 0.003 0.511 0.002 0.767-0.001 0.214 0 0.428 0.001 0.642 0.002 0.506 0.002 1.012-0 1.519-0.002 0.52 0 1.039 0.005 1.559 0.004 0.448 0.005 0.896 0.004 1.344-0.001 0.267-0 0.533 0.002 0.8 0.020 2.088 0.020 2.088-0.658 2.963-0.111 0.148-0.194 0.305-0.281 0.469-0.028 0.051-0.057 0.103-0.086 0.155-0.028 0.050-0.056 0.101-0.084 0.152-0.232 0.418-0.464 0.835-0.7 1.25-0.267 0.47-0.53 0.943-0.792 1.415-0.355 0.639-0.712 1.276-1.069 1.914-0.087 0.155-0.174 0.31-0.26 0.465-0.029 0.051-0.057 0.102-0.087 0.155-0.216 0.385-0.43 0.771-0.644 1.157-0.257 0.463-0.515 0.924-0.776 1.384-0.24 0.424-0.476 0.849-0.713 1.275-0.297 0.536-0.597 1.070-0.896 1.605-0.146 0.26-0.291 0.52-0.437 0.78-0.058 0.104-0.117 0.208-0.175 0.313-0.029 0.052-0.058 0.103-0.087 0.156-0.321 0.573-0.642 1.146-0.962 1.719-0.029 0.052-0.058 0.103-0.088 0.156-0.058 0.104-0.116 0.208-0.175 0.312-0.148 0.264-0.295 0.528-0.441 0.792-0.353 0.638-0.712 1.273-1.122 1.877-0.017 0.034-0.035 0.069-0.053 0.104-0.125 0.123-0.22 0.121-0.391 0.124-0.040-0-0.081-0.001-0.122-0.001-0.043 0.001-0.086 0.001-0.13 0.001-0.145 0.001-0.289 0.001-0.434 0.001-0.103 0.001-0.207 0.001-0.31 0.002-0.281 0.002-0.563 0.003-0.844 0.003-0.176 0-0.351 0.001-0.527 0.001-0.613 0.002-1.226 0.003-1.838 0.003-0.571 0-1.143 0.003-1.714 0.006-0.49 0.003-0.981 0.004-1.471 0.004-0.293 0-0.586 0.001-0.879 0.003-0.276 0.002-0.551 0.002-0.827 0.001-0.101-0-0.202 0-0.303 0.002-0.765 0.010-0.765 0.010-0.992-0.155-0.090-0.114-0.154-0.219-0.214-0.351-0.029-0.044-0.059-0.088-0.089-0.134-0.032-0.055-0.032-0.055-0.064-0.11-0.025-0.042-0.050-0.084-0.075-0.128s-0.051-0.089-0.077-0.134c-0.028-0.048-0.056-0.095-0.084-0.145-0.25-0.429-0.494-0.862-0.737-1.294-0.186-0.331-0.374-0.66-0.563-0.989-0.017-0.029-0.034-0.059-0.051-0.089-0.085-0.149-0.171-0.299-0.256-0.448-0.151-0.264-0.302-0.528-0.453-0.792-0.083-0.146-0.167-0.291-0.25-0.437-0.033-0.058-0.067-0.117-0.1-0.175-0.016-0.029-0.033-0.058-0.050-0.087-0.15-0.262-0.15-0.262-0.2-0.35-0.033-0.058-0.067-0.117-0.1-0.175-0.083-0.146-0.167-0.291-0.25-0.437-0.151-0.264-0.302-0.528-0.453-0.792-0.085-0.148-0.169-0.295-0.254-0.443-0.017-0.029-0.033-0.058-0.050-0.088-0.236-0.412-0.469-0.826-0.7-1.24-0.255-0.457-0.516-0.91-0.781-1.362-0.239-0.408-0.47-0.82-0.7-1.233-0.2-0.358-0.405-0.714-0.612-1.068-0.269-0.458-0.53-0.919-0.788-1.382-0.199-0.356-0.402-0.71-0.609-1.061-0.282-0.48-0.553-0.964-0.822-1.451-0.24-0.434-0.487-0.863-0.74-1.29-0.052-0.089-0.104-0.177-0.155-0.267-0.056-0.096-0.115-0.191-0.177-0.284-0.303-0.487-0.309-0.904-0.305-1.463-0-0.094-0.001-0.188-0.002-0.282-0.002-0.254-0.001-0.507 0-0.761 0.001-0.266 0-0.532-0.001-0.799-0.001-0.447 0-0.893 0.002-1.34 0.002-0.516 0.001-1.032-0.001-1.548-0.002-0.444-0.002-0.888-0.001-1.332 0.001-0.265 0.001-0.529-0.001-0.794-0.001-0.249-0-0.497 0.002-0.746 0-0.091 0-0.182-0-0.273-0.006-0.774-0.006-0.774 0.217-1.002 0.093-0.070 0.093-0.070 0.179-0.124 0.038-0.029 0.076-0.059 0.115-0.089 1.328-0.797 3.058-0.922 4.569-0.917 0.066 0 0.132 0 0.199 0 0.352 0.002 0.702 0.009 1.054 0.031 1.365 0.085 2.455-0.006 3.693-0.609 0.9-0.438 1.807-0.681 2.778-0.919 0.124-0.030 0.247-0.061 0.371-0.092 2.324-0.578 4.545-0.698 6.932-0.666z">
            </path>
            <path fill="#8b72fd" style="fill: var(--color2, #8b72fd)"
                d="M21.75 3.8c0.1 0.081 0.1 0.081 0.15 0.2-0.024 0.239-0.076 0.462-0.143 0.693-0.009 0.032-0.019 0.064-0.028 0.098-0.030 0.105-0.061 0.21-0.092 0.316-0.021 0.073-0.042 0.147-0.064 0.22-0.056 0.192-0.111 0.385-0.167 0.577-0.057 0.197-0.114 0.393-0.171 0.59-0.111 0.385-0.223 0.771-0.335 1.156 0.044-0.008 0.044-0.008 0.088-0.016 0.839-0.157 1.678-0.314 2.518-0.47 0.275-0.051 0.55-0.102 0.826-0.154 0.365-0.068 0.731-0.136 1.096-0.204 0.198-0.037 0.395-0.073 0.593-0.11 0.187-0.035 0.375-0.070 0.562-0.104 0.069-0.013 0.138-0.026 0.207-0.039 0.886-0.167 0.886-0.167 1.176-0.019 0.197 0.17 0.274 0.279 0.306 0.539-0.005 0.299-0.163 0.533-0.309 0.786-0.030 0.053-0.059 0.106-0.089 0.16-0.090 0.161-0.181 0.321-0.273 0.481-0.050 0.088-0.1 0.176-0.15 0.264-0.072 0.126-0.144 0.253-0.217 0.379-0.204 0.355-0.403 0.712-0.602 1.069-0.33 0.595-0.662 1.189-0.995 1.783-0.146 0.26-0.291 0.52-0.437 0.78-0.058 0.104-0.117 0.208-0.175 0.313-0.029 0.052-0.058 0.103-0.087 0.156-0.262 0.469-0.262 0.469-0.35 0.625-0.058 0.104-0.117 0.209-0.175 0.313-0.145 0.259-0.29 0.518-0.436 0.777-0.303 0.54-0.605 1.081-0.905 1.622-0.257 0.463-0.515 0.924-0.776 1.384-0.24 0.424-0.476 0.849-0.713 1.275-0.297 0.536-0.597 1.070-0.896 1.605-0.146 0.26-0.291 0.52-0.437 0.78-0.174 0.311-0.349 0.623-0.523 0.934-0.303 0.54-0.605 1.081-0.905 1.622-0.256 0.462-0.515 0.923-0.776 1.383-0.198 0.349-0.393 0.7-0.588 1.051-0.079 0.143-0.159 0.286-0.239 0.43-0.1 0.18-0.199 0.359-0.297 0.54-0.035 0.063-0.069 0.125-0.104 0.188-0.041 0.076-0.041 0.076-0.083 0.153-0.116 0.169-0.241 0.292-0.437 0.361-0.243 0.028-0.39 0.007-0.599-0.136-0.138-0.159-0.247-0.321-0.348-0.506-0.027-0.049-0.055-0.099-0.083-0.15-0.029-0.053-0.058-0.106-0.088-0.16-0.239-0.431-0.481-0.86-0.731-1.284-0.266-0.453-0.525-0.91-0.781-1.369-0.219-0.392-0.44-0.783-0.663-1.172-0.017-0.029-0.033-0.058-0.050-0.088-0.085-0.148-0.169-0.296-0.254-0.444-0.151-0.263-0.301-0.527-0.452-0.79-0.083-0.146-0.167-0.292-0.25-0.437-0.033-0.058-0.067-0.117-0.1-0.175-0.017-0.029-0.033-0.058-0.050-0.087-0.15-0.262-0.15-0.262-0.2-0.35-0.033-0.058-0.067-0.117-0.1-0.175-0.083-0.146-0.167-0.291-0.25-0.437-0.151-0.264-0.302-0.528-0.453-0.792-0.085-0.148-0.169-0.295-0.254-0.443-0.017-0.029-0.033-0.058-0.050-0.088-0.236-0.412-0.469-0.826-0.7-1.24-0.255-0.457-0.516-0.91-0.781-1.362-0.239-0.408-0.47-0.82-0.7-1.233-0.2-0.358-0.405-0.714-0.612-1.068-0.271-0.461-0.534-0.926-0.795-1.393-0.255-0.456-0.513-0.91-0.773-1.364-0.14-0.244-0.279-0.488-0.419-0.732-0.051-0.089-0.102-0.178-0.153-0.268-0.155-0.271-0.309-0.541-0.464-0.812-0.051-0.089-0.101-0.178-0.152-0.267-0.067-0.117-0.133-0.234-0.2-0.351-0.163-0.286-0.328-0.57-0.499-0.852-0.032-0.054-0.065-0.108-0.098-0.164-0.061-0.101-0.123-0.202-0.185-0.302-0.166-0.276-0.279-0.517-0.263-0.845 0.063-0.197 0.13-0.282 0.284-0.419 0.405-0.199 0.899-0.031 1.324 0.046 0.077 0.014 0.153 0.027 0.23 0.041 0.207 0.037 0.414 0.075 0.621 0.112 0.217 0.039 0.434 0.078 0.651 0.117 0.364 0.065 0.728 0.131 1.092 0.197 0.513 0.093 1.027 0.185 1.54 0.278 0.356 0.064 0.712 0.128 1.067 0.192 0.086 0.016 0.172 0.031 0.259 0.047 0.246 0.044 0.491 0.089 0.737 0.133 0.074 0.013 0.149 0.027 0.223 0.040 0.101 0.018 0.203 0.037 0.304 0.055 0.057 0.010 0.114 0.021 0.172 0.031 0.117 0.022 0.231 0.048 0.345 0.078-0.001-0.056-0.001-0.056-0.001-0.114-0.003-0.412 0.011-0.822 0.036-1.233 0.006-0.104 0.011-0.207 0.017-0.311 0.004-0.067 0.008-0.134 0.012-0.201 0.003-0.059 0.007-0.119 0.010-0.18 0.030-0.186 0.053-0.266 0.176-0.41 0.163-0.063 0.331-0.090 0.502-0.119 0.11-0.021 0.22-0.042 0.33-0.063 0.059-0.011 0.119-0.022 0.18-0.033 0.193-0.036 0.385-0.074 0.577-0.113 0.033-0.007 0.067-0.014 0.101-0.021 0.069-0.014 0.139-0.028 0.208-0.042 0.183-0.037 0.366-0.073 0.549-0.11 0.057-0.011 0.057-0.011 0.114-0.023 0.531-0.106 1.062-0.211 1.594-0.317 0.475-0.094 0.949-0.189 1.424-0.284 0.336-0.067 0.673-0.134 1.009-0.201 0.2-0.040 0.4-0.079 0.6-0.12 0.187-0.038 0.374-0.075 0.562-0.112 0.069-0.014 0.137-0.027 0.205-0.041 0.653-0.133 0.653-0.133 0.944-0.053z">
            </path>
            <path fill="#fec923" style="fill: var(--color3, #fec923)"
                d="M21.75 3.8c0.1 0.081 0.1 0.081 0.15 0.2-0.023 0.231-0.072 0.447-0.137 0.67-0.018 0.061-0.036 0.123-0.054 0.186-0.020 0.066-0.039 0.133-0.059 0.199-0.020 0.070-0.041 0.139-0.061 0.209-0.043 0.146-0.086 0.292-0.129 0.438-0.054 0.184-0.108 0.367-0.162 0.551-0.233 0.796-0.47 1.591-0.713 2.385-0.211 0.668-0.211 0.668-0.284 1.363 0.068 0.011 0.135 0.021 0.203 0.031 0.057 0.009 0.057 0.009 0.114 0.018 0.14 0.001 0.249-0.032 0.382-0.071 0.178-0.049 0.36-0.081 0.542-0.114 0.041-0.008 0.082-0.015 0.125-0.023 0.086-0.016 0.173-0.032 0.259-0.048 0.132-0.024 0.264-0.049 0.395-0.073 0.084-0.016 0.168-0.031 0.253-0.046 0.039-0.007 0.078-0.015 0.119-0.022 0.501-0.091 0.501-0.091 0.678 0.030 0.081 0.119 0.081 0.119 0.077 0.244-0.065 0.249-0.178 0.466-0.294 0.696-0.026 0.052-0.052 0.105-0.079 0.159-0.072 0.145-0.145 0.29-0.218 0.435-0.079 0.156-0.157 0.313-0.235 0.47-0.153 0.307-0.307 0.613-0.461 0.92-0.179 0.357-0.358 0.715-0.537 1.073-0.32 0.639-0.639 1.278-0.96 1.916-0.31 0.618-0.62 1.237-0.929 1.856-0.019 0.038-0.038 0.076-0.058 0.115-0.076 0.153-0.153 0.306-0.23 0.459-0.314 0.627-0.627 1.253-0.941 1.88-0.071 0.142-0.143 0.285-0.214 0.427-0.187 0.375-0.375 0.749-0.563 1.123-0.078 0.155-0.155 0.309-0.233 0.464-0.634 1.267-0.634 1.267-0.946 1.834-0.017 0.031-0.034 0.062-0.052 0.094-0.074 0.133-0.14 0.248-0.248 0.356-0.175 0.012-0.175 0.012-0.35 0-0.12-0.12-0.115-0.146-0.115-0.31 0.008-0.351 0.084-0.688 0.158-1.030 0.015-0.072 0.030-0.144 0.045-0.216 0.039-0.189 0.079-0.378 0.119-0.567 0.040-0.187 0.079-0.374 0.118-0.561 0.015-0.074 0.031-0.148 0.046-0.222 0.008-0.037 0.015-0.073 0.023-0.111 0.023-0.11 0.046-0.221 0.069-0.331 0.097-0.462 0.193-0.924 0.286-1.387 0.019-0.094 0.038-0.188 0.057-0.282 0.096-0.463 0.096-0.463 0.142-0.933-0.060-0.091-0.060-0.091-0.15-0.15-0.417 0.007-0.809 0.179-1.199 0.315-0.054 0.018-0.107 0.036-0.162 0.055-0.048 0.017-0.097 0.033-0.146 0.051-0.165 0.035-0.28 0.023-0.442-0.020-0.121-0.121-0.114-0.151-0.114-0.316 0.007-0.317 0.075-0.616 0.146-0.924 0.027-0.124 0.055-0.247 0.082-0.371 0.014-0.064 0.028-0.127 0.043-0.193 0.072-0.325 0.141-0.651 0.209-0.977 0.013-0.059 0.025-0.119 0.039-0.18 0.119-0.49 0.119-0.49 0.146-0.989-0.055-0.094-0.055-0.094-0.15-0.15-0.45-0.046-0.941 0.138-1.375 0.25-1.040 0.268-1.040 0.268-1.375 0.25-0.050-0.033-0.099-0.066-0.15-0.1-0.019-0.117-0.019-0.117-0.018-0.267-0-0.056-0-0.113-0-0.171 0.001-0.062 0.002-0.123 0.003-0.187s0.001-0.128 0.002-0.195c0.009-0.868 0.065-1.736 0.136-2.602 0.079-0.968 0.127-1.938 0.174-2.908 0.017-0.353 0.035-0.706 0.052-1.059 0.006-0.121 0.012-0.242 0.018-0.364 0.009-0.182 0.018-0.364 0.028-0.546 0.005-0.101 0.010-0.203 0.014-0.304 0.003-0.062 0.006-0.124 0.010-0.188 0.002-0.054 0.005-0.108 0.008-0.164 0.029-0.178 0.050-0.263 0.174-0.396 0.163-0.063 0.331-0.090 0.502-0.119 0.11-0.021 0.22-0.042 0.33-0.063 0.059-0.011 0.119-0.022 0.18-0.033 0.193-0.036 0.385-0.074 0.577-0.113 0.033-0.007 0.067-0.014 0.101-0.021 0.069-0.014 0.139-0.028 0.208-0.042 0.183-0.037 0.366-0.073 0.549-0.11 0.057-0.011 0.057-0.011 0.114-0.023 0.531-0.106 1.062-0.211 1.594-0.317 0.475-0.094 0.949-0.189 1.424-0.284 0.336-0.067 0.673-0.134 1.009-0.201 0.2-0.040 0.4-0.079 0.6-0.12 0.187-0.038 0.374-0.075 0.562-0.112 0.069-0.014 0.137-0.027 0.205-0.041 0.653-0.133 0.653-0.133 0.944-0.053z">
            </path>
        </symbol>
        <symbol id="icon-ph_instagram-logo-fill" viewBox="0 0 32 32">
            <path opacity="0.8"
                d="M21.179 4h-11.692c-1.808 0.002-3.542 0.721-4.821 2s-1.998 3.012-2 4.821v11.692c0.002 1.808 0.721 3.542 2 4.821s3.012 1.998 4.821 2h11.692c1.808-0.002 3.542-0.721 4.821-2s1.998-3.012 2-4.821v-11.692c-0.002-1.808-0.721-3.542-2-4.821s-3.012-1.998-4.821-2zM15.333 22.513c-1.156 0-2.287-0.343-3.248-0.985s-1.711-1.555-2.153-2.624c-0.442-1.068-0.558-2.244-0.333-3.378s0.782-2.176 1.6-2.993c0.818-0.818 1.859-1.374 2.993-1.6s2.309-0.11 3.378 0.333 1.981 1.192 2.624 2.153c0.642 0.961 0.985 2.092 0.985 3.248-0.002 1.55-0.618 3.036-1.714 4.132s-2.582 1.712-4.132 1.714zM22.641 10.82c-0.289 0-0.572-0.086-0.812-0.246s-0.428-0.389-0.538-0.656c-0.111-0.267-0.14-0.561-0.083-0.844s0.196-0.544 0.4-0.748c0.204-0.204 0.465-0.344 0.748-0.4s0.577-0.027 0.844 0.083c0.267 0.111 0.495 0.298 0.656 0.538s0.246 0.523 0.246 0.812c0 0.388-0.154 0.759-0.428 1.033s-0.646 0.428-1.033 0.428zM19.231 16.667c0 0.771-0.229 1.524-0.657 2.165s-1.037 1.14-1.749 1.435c-0.712 0.295-1.496 0.372-2.252 0.222s-1.45-0.522-1.995-1.067-0.916-1.239-1.067-1.995c-0.15-0.756-0.073-1.54 0.222-2.252s0.795-1.321 1.435-1.749c0.641-0.428 1.395-0.657 2.165-0.657 1.034 0 2.025 0.411 2.756 1.142s1.142 1.722 1.142 2.756z">
            </path>
        </symbol>
        <symbol id="icon-entypo-social_youtube-with-circle" viewBox="0 0 32 32">
            <path opacity="0.8"
                d="M18.226 15.768l-3.119-1.455c-0.272-0.126-0.496 0.015-0.496 0.317v2.742c0 0.301 0.224 0.443 0.496 0.317l3.118-1.455c0.274-0.128 0.274-0.336 0.001-0.464zM16 2.667c-7.364 0-13.333 5.969-13.333 13.333s5.969 13.333 13.333 13.333c7.364 0 13.333-5.969 13.333-13.333s-5.969-13.333-13.333-13.333zM16 21.417c-6.825 0-6.944-0.615-6.944-5.417s0.119-5.417 6.944-5.417c6.825 0 6.944 0.615 6.944 5.417s-0.119 5.417-6.944 5.417z">
            </path>
        </symbol>
        <symbol id="icon-ic_outline-facebook" viewBox="0 0 32 32">
            <path opacity="0.8"
                d="M29.333 16.033c0-7.378-5.973-13.367-13.333-13.367s-13.333 5.988-13.333 13.367c0 6.469 4.587 11.856 10.667 13.099v-9.089h-2.667v-4.010h2.667v-3.342c0-2.58 2.093-4.678 4.667-4.678h3.333v4.010h-2.667c-0.733 0-1.333 0.601-1.333 1.337v2.673h4v4.010h-4v9.29c6.733-0.668 12-6.363 12-13.3z">
            </path>
        </symbol>
        <symbol id="icon-ci_menu-duo-lg" viewBox="0 0 32 32">
            <path stroke-linejoin="round" stroke-linecap="round" stroke-miterlimit="4" stroke-width="2.8571"
                d="M4 20h24M4 12h24"></path>
        </symbol>
        <symbol id="icon-ion_close-sharp" viewBox="0 0 32 32">
            <path fill="#055545" style="fill: var(--color5, #055545)"
                d="M25.143 8.983l-2.126-2.126-7.016 7.016-7.016-7.016-2.126 2.126 7.016 7.017-7.016 7.016 2.126 2.126 7.017-7.016 7.016 7.016 2.126-2.126-7.016-7.016 7.016-7.017z">
            </path>
        </symbol>
        <symbol id="icon-facebook-footer" viewBox="0 0 32 32">
            <path
                d="M29.333 16.033C29.333 8.655 23.36 2.666 16 2.666S2.667 8.654 2.667 16.033c0 6.469 4.587 11.856 10.667 13.099v-9.089h-2.667v-4.01h2.667v-3.342a4.677 4.677 0 0 1 4.667-4.678h3.333v4.01h-2.667c-.733 0-1.333.601-1.333 1.337v2.673h4v4.01h-4v9.29c6.733-.668 12-6.363 12-13.3z" />
        </symbol>
        <symbol id="icon-youtube-footer" viewBox="0 0 32 32">
            <path
                d="m18.226 15.768-3.119-1.455c-.272-.126-.496.015-.496.317v2.742c0 .301.224.443.496.317l3.118-1.455c.274-.128.274-.336.001-.464zM16 2.667C8.636 2.667 2.667 8.636 2.667 16S8.636 29.333 16 29.333 29.333 23.364 29.333 16 23.364 2.667 16 2.667zm0 18.75c-6.825 0-6.944-.615-6.944-5.417s.119-5.417 6.944-5.417 6.944.615 6.944 5.417-.119 5.417-6.944 5.417z" />
        </symbol>
        <symbol id="icon-instagram-footer" viewBox="0 0 32 32">
            <path
                d="M21.179 4H9.487a6.829 6.829 0 0 0-6.821 6.821v11.692a6.829 6.829 0 0 0 6.821 6.821h11.692A6.829 6.829 0 0 0 28 22.513V10.821A6.829 6.829 0 0 0 21.179 4zm-5.846 18.513a5.849 5.849 0 0 1-5.401-3.609c-.442-1.068-.558-2.244-.333-3.378s.782-2.176 1.6-2.993a5.847 5.847 0 0 1 9.98 4.134 5.854 5.854 0 0 1-5.846 5.846zm7.308-11.693a1.465 1.465 0 0 1-1.35-.902c-.111-.267-.14-.561-.083-.844a1.468 1.468 0 0 1 1.148-1.148 1.469 1.469 0 0 1 1.5.621 1.457 1.457 0 0 1-.182 1.845 1.462 1.462 0 0 1-1.033.428zm-3.41 5.847a3.898 3.898 0 1 1-7.797-.002 3.898 3.898 0 0 1 7.797.002z" />
        </symbol>
    </defs>
</svg>